<svg xmlns="http://www.w3.org/2000/svg" xmlns:xlink="http://www.w3.org/1999/xlink" width="200" zoomAndPan="magnify" viewBox="0 0 150 149.999998" height="200" preserveAspectRatio="xMidYMid meet" version="1.0"><defs><clipPath id="9b09da3826"><path d="M 31.976562 31.976562 L 118.226562 31.976562 L 118.226562 118.226562 L 31.976562 118.226562 Z M 31.976562 31.976562 " clip-rule="nonzero"/></clipPath></defs><g clip-path="url(#9b09da3826)"><path fill="#ffffff" d="M 111.226562 68.207031 L 81.789062 68.207031 L 81.789062 38.769531 C 81.789062 35.054688 78.800781 31.976562 74.996094 31.976562 C 71.285156 31.976562 68.207031 34.964844 68.207031 38.769531 L 68.207031 68.207031 L 38.769531 68.207031 C 35.054688 68.207031 31.976562 71.191406 31.976562 74.996094 C 31.976562 76.898438 32.703125 78.527344 33.972656 79.800781 C 35.238281 81.0625 36.867188 81.789062 38.769531 81.789062 L 68.207031 81.789062 L 68.207031 111.226562 C 68.207031 113.128906 68.933594 114.753906 70.199219 116.023438 C 71.46875 117.289062 73.09375 118.015625 74.996094 118.015625 C 78.710938 118.015625 81.789062 115.03125 81.789062 111.226562 L 81.789062 81.789062 L 111.226562 81.789062 C 114.9375 81.789062 118.015625 78.800781 118.015625 74.996094 C 118.015625 71.285156 115.03125 68.207031 111.226562 68.207031 " fill-opacity="1" fill-rule="nonzero"/></g></svg>