<svg xmlns="http://www.w3.org/2000/svg" xmlns:xlink="http://www.w3.org/1999/xlink" width="200" zoomAndPan="magnify" viewBox="0 0 150 149.999998" height="200" preserveAspectRatio="xMidYMid meet" version="1.0"><defs><clipPath id="afe4037b13"><path d="M 27.078125 26 L 108 26 L 108 124 L 27.078125 124 Z M 27.078125 26 " clip-rule="nonzero"/></clipPath></defs><g clip-path="url(#afe4037b13)"><path fill="#013a5e" d="M 98.371094 118.765625 L 98.371094 118.808594 C 98.371094 121.628906 96.066406 123.933594 93.246094 123.933594 L 32.191406 123.933594 C 29.371094 123.933594 27.066406 121.628906 27.066406 118.808594 L 27.066406 40.246094 C 27.066406 37.429688 29.371094 35.125 32.191406 35.125 L 32.234375 35.125 L 32.234375 109.726562 C 32.234375 114.703125 36.292969 118.765625 41.273438 118.765625 Z M 45.613281 97.871094 L 58.625 97.871094 C 59.707031 97.871094 60.582031 96.992188 60.582031 95.910156 C 60.582031 94.832031 59.707031 93.953125 58.625 93.953125 L 45.613281 93.953125 C 44.53125 93.953125 43.65625 94.832031 43.65625 95.910156 C 43.65625 96.992188 44.53125 97.871094 45.613281 97.871094 Z M 45.613281 88.757812 L 74.597656 88.757812 C 75.679688 88.757812 76.554688 87.878906 76.554688 86.796875 C 76.554688 85.71875 75.679688 84.839844 74.597656 84.839844 L 45.613281 84.839844 C 44.53125 84.839844 43.65625 85.71875 43.65625 86.796875 C 43.65625 87.878906 44.53125 88.757812 45.613281 88.757812 Z M 45.613281 106.984375 L 91.859375 106.984375 C 92.941406 106.984375 93.816406 106.105469 93.816406 105.027344 C 93.816406 103.945312 92.941406 103.066406 91.859375 103.066406 L 45.613281 103.066406 C 44.53125 103.066406 43.65625 103.945312 43.65625 105.027344 C 43.65625 106.105469 44.53125 106.984375 45.613281 106.984375 Z M 64.765625 97.871094 L 85.863281 97.871094 C 86.941406 97.871094 87.820312 96.992188 87.820312 95.910156 C 87.820312 94.832031 86.941406 93.953125 85.863281 93.953125 L 64.765625 93.953125 C 63.683594 93.953125 62.804688 94.832031 62.804688 95.910156 C 62.804688 96.992188 63.683594 97.871094 64.765625 97.871094 Z M 80.914062 88.757812 L 85.738281 88.757812 C 86.820312 88.757812 87.699219 87.878906 87.699219 86.796875 C 87.699219 85.71875 86.820312 84.839844 85.738281 84.839844 L 80.914062 84.839844 C 79.832031 84.839844 78.957031 85.71875 78.957031 86.796875 C 78.957031 87.878906 79.832031 88.757812 80.914062 88.757812 Z M 45.613281 79.640625 L 85.003906 79.640625 C 86.085938 79.640625 86.964844 78.765625 86.964844 77.683594 C 86.964844 76.601562 86.085938 75.726562 85.003906 75.726562 L 45.613281 75.726562 C 44.53125 75.726562 43.65625 76.601562 43.65625 77.683594 C 43.65625 78.765625 44.53125 79.640625 45.613281 79.640625 Z M 50.820312 66.425781 C 59.953125 69.753906 69.082031 69.757812 78.214844 66.425781 C 78.652344 66.261719 78.929688 65.855469 78.914062 65.386719 C 78.644531 57.667969 72.300781 51.492188 64.519531 51.492188 C 56.734375 51.492188 50.390625 57.667969 50.121094 65.386719 C 50.105469 65.855469 50.378906 66.261719 50.820312 66.425781 Z M 64.515625 35.6875 C 60.941406 35.6875 58.039062 38.585938 58.039062 42.164062 C 58.039062 45.742188 60.941406 48.640625 64.515625 48.640625 C 68.09375 48.640625 70.996094 45.742188 70.996094 42.164062 C 70.996094 38.585938 68.09375 35.6875 64.515625 35.6875 Z M 107.453125 47.140625 L 94.75 47.140625 C 89.773438 47.140625 85.710938 43.082031 85.710938 38.101562 L 85.710938 26.039062 L 41.273438 26.039062 C 38.457031 26.039062 36.148438 28.34375 36.148438 31.164062 L 36.148438 109.726562 C 36.148438 112.542969 38.457031 114.847656 41.273438 114.847656 L 102.328125 114.847656 C 105.148438 114.847656 107.453125 112.542969 107.453125 109.726562 L 107.453125 109.644531 C 99.015625 105.976562 92.09375 97.40625 90.917969 88.523438 C 90.890625 88.292969 90.875 88.066406 90.875 87.839844 L 90.875 69.484375 C 90.875 67.339844 92.164062 65.433594 94.15625 64.636719 L 107.453125 59.316406 Z M 89.628906 26.039062 L 89.628906 38.101562 C 89.628906 40.921875 91.933594 43.226562 94.75 43.226562 L 107.453125 43.226562 Z M 89.628906 26.039062 " fill-opacity="1" fill-rule="evenodd"/></g><path fill="#4084ff" d="M 118.109375 79.335938 L 118.109375 76.671875 C 118.109375 75.363281 117.574219 74.171875 116.707031 73.304688 C 115.84375 72.441406 114.652344 71.90625 113.34375 71.90625 C 112.074219 71.90625 110.914062 72.40625 110.0625 73.21875 C 110.035156 73.246094 110.007812 73.277344 109.980469 73.304688 C 109.117188 74.171875 108.578125 75.363281 108.578125 76.671875 L 108.578125 79.335938 Z M 104.664062 79.335938 L 104.664062 76.671875 C 104.664062 74.28125 105.640625 72.109375 107.210938 70.539062 C 107.25 70.5 107.289062 70.460938 107.332031 70.425781 C 108.898438 68.917969 111.019531 67.988281 113.34375 67.988281 C 115.734375 67.988281 117.902344 68.964844 119.476562 70.539062 C 121.050781 72.109375 122.027344 74.28125 122.027344 76.671875 L 122.027344 79.335938 L 122.289062 79.335938 C 123.359375 79.335938 124.234375 80.210938 124.234375 81.28125 L 124.234375 93.207031 C 124.234375 94.277344 123.359375 95.15625 122.289062 95.15625 L 104.398438 95.15625 C 103.328125 95.15625 102.453125 94.277344 102.453125 93.207031 C 102.453125 89.234375 102.453125 85.257812 102.453125 81.28125 C 102.453125 80.210938 103.328125 79.335938 104.398438 79.335938 Z M 113.34375 82.070312 C 111.855469 82.070312 110.644531 83.28125 110.644531 84.769531 C 110.644531 85.5 110.933594 86.164062 111.40625 86.648438 C 111.394531 86.738281 111.386719 86.832031 111.386719 86.925781 L 111.386719 90.75 C 111.386719 91.828125 112.261719 92.707031 113.34375 92.707031 C 114.425781 92.707031 115.300781 91.828125 115.300781 90.75 L 115.300781 86.925781 C 115.300781 86.832031 115.296875 86.738281 115.28125 86.648438 C 115.753906 86.164062 116.042969 85.5 116.042969 84.769531 C 116.042969 83.28125 114.835938 82.070312 113.34375 82.070312 Z M 113.105469 107.324219 C 103.578125 105.558594 95.882812 96.199219 94.800781 88.007812 C 94.792969 87.949219 94.789062 87.898438 94.789062 87.839844 L 94.789062 69.484375 C 94.789062 68.941406 95.105469 68.472656 95.613281 68.273438 L 112.859375 61.371094 C 113.183594 61.242188 113.507812 61.242188 113.832031 61.371094 L 131.078125 68.273438 C 131.582031 68.472656 131.898438 68.941406 131.898438 69.484375 L 131.898438 87.839844 C 131.898438 87.898438 131.894531 87.949219 131.886719 88.007812 C 130.804688 96.199219 123.109375 105.558594 113.582031 107.324219 C 113.417969 107.355469 113.269531 107.355469 113.105469 107.324219 Z M 113.105469 107.324219 " fill-opacity="1" fill-rule="evenodd"/></svg>